<svg width="48" height="48" viewBox="0 0 48 48" fill="none" xmlns="http://www.w3.org/2000/svg">
<rect x="0.5" y="0.5" width="47" height="47" rx="7.5" fill="#6E50B7" fill-opacity="0.2"/>
<rect x="0.5" y="0.5" width="47" height="47" rx="7.5" stroke="#8B73C5"/>
<path d="M17.25 16.5H21.75C22.1642 16.5 22.5 16.8358 22.5 17.25V21.75C22.5 22.1642 22.1642 22.5 21.75 22.5H17.25C16.8358 22.5 16.5 22.1642 16.5 21.75V17.25C16.5 16.8358 16.8358 16.5 17.25 16.5Z" fill="#8B73C5"/>
<path d="M17.25 25.5H21.75C22.1642 25.5 22.5 25.8358 22.5 26.25V30.75C22.5 31.1642 22.1642 31.5 21.75 31.5H17.25C16.8358 31.5 16.5 31.1642 16.5 30.75V26.25C16.5 25.8358 16.8358 25.5 17.25 25.5Z" fill="#8B73C5"/>
<path d="M26.25 16.5H30.75C31.1642 16.5 31.5 16.8358 31.5 17.25V21.75C31.5 22.1642 31.1642 22.5 30.75 22.5H26.25C25.8358 22.5 25.5 22.1642 25.5 21.75V17.25C25.5 16.8358 25.8358 16.5 26.25 16.5Z" fill="#8B73C5"/>
<path fill-rule="evenodd" clip-rule="evenodd" d="M15.75 17.25C15.75 17.25 15.75 16.6287 16.1893 16.1893C16.1893 16.1893 16.6287 15.75 17.25 15.75H21.75C21.75 15.75 22.3713 15.75 22.8107 16.1893C22.8107 16.1893 23.25 16.6287 23.25 17.25V21.75C23.25 21.75 23.25 22.3713 22.8107 22.8107C22.8107 22.8107 22.3713 23.25 21.75 23.25H17.25C17.25 23.25 16.6287 23.25 16.1893 22.8107C16.1893 22.8107 15.75 22.3713 15.75 21.75V17.25ZM17.25 17.25V21.75L21.75 21.75L21.75 17.25H17.25Z" fill="#DCD5EE"/>
<path fill-rule="evenodd" clip-rule="evenodd" d="M15.75 26.25C15.75 26.25 15.75 25.6287 16.1893 25.1893C16.1893 25.1893 16.6287 24.75 17.25 24.75H21.75C21.75 24.75 22.3713 24.75 22.8107 25.1893C22.8107 25.1893 23.25 25.6287 23.25 26.25V30.75C23.25 30.75 23.25 31.3713 22.8107 31.8107C22.8107 31.8107 22.3713 32.25 21.75 32.25H17.25C17.25 32.25 16.6287 32.25 16.1893 31.8107C16.1893 31.8107 15.75 31.3713 15.75 30.75V26.25ZM17.25 26.25V30.75L21.75 30.75L21.75 26.25H17.25Z" fill="#DCD5EE"/>
<path fill-rule="evenodd" clip-rule="evenodd" d="M24.75 17.25C24.75 17.25 24.75 16.6287 25.1893 16.1893C25.1893 16.1893 25.6287 15.75 26.25 15.75H30.75C30.75 15.75 31.3713 15.75 31.8107 16.1893C31.8107 16.1893 32.25 16.6287 32.25 17.25V21.75C32.25 21.75 32.25 22.3713 31.8107 22.8107C31.8107 22.8107 31.3713 23.25 30.75 23.25H26.25C26.25 23.25 25.6287 23.25 25.1893 22.8107C25.1893 22.8107 24.75 22.3713 24.75 21.75V17.25ZM26.25 17.25V21.75L30.75 21.75L30.75 17.25H26.25Z" fill="#DCD5EE"/>
<path d="M24.75 25.5V28.5C24.75 28.9142 25.0858 29.25 25.5 29.25C25.9142 29.25 26.25 28.9142 26.25 28.5V25.5C26.25 25.0858 25.9142 24.75 25.5 24.75C25.0858 24.75 24.75 25.0858 24.75 25.5Z" fill="#DCD5EE"/>
<path d="M29.25 31.5V25.5C29.25 25.0858 28.9142 24.75 28.5 24.75C28.0858 24.75 27.75 25.0858 27.75 25.5V30.75H25.5C25.0858 30.75 24.75 31.0858 24.75 31.5C24.75 31.9142 25.0858 32.25 25.5 32.25H28.5C28.9142 32.25 29.25 31.9142 29.25 31.5Z" fill="#DCD5EE"/>
<path d="M28.5 27.75H31.5C31.9142 27.75 32.25 27.4142 32.25 27C32.25 26.5858 31.9142 26.25 31.5 26.25H28.5C28.0858 26.25 27.75 26.5858 27.75 27C27.75 27.4142 28.0858 27.75 28.5 27.75Z" fill="#DCD5EE"/>
<path d="M31.5 29.25C31.0858 29.25 30.75 29.5858 30.75 30V31.5C30.75 31.9142 31.0858 32.25 31.5 32.25C31.9142 32.25 32.25 31.9142 32.25 31.5V30C32.25 29.5858 31.9142 29.25 31.5 29.25Z" fill="#DCD5EE"/>
</svg>
