<svg width="16" height="16" viewBox="0 0 16 16" fill="none" xmlns="http://www.w3.org/2000/svg">
<path d="M8.3737 15.3322L12.3737 10.8322C12.4551 10.7407 12.5 10.6225 12.5 10.5C12.5 10.4902 12.4997 10.4804 12.4991 10.4706C12.4913 10.3383 12.4313 10.2144 12.3322 10.1263C12.2407 10.0449 12.1225 10 12 9.99999C11.9902 9.99999 11.9804 10.0003 11.9706 10.0009C11.8383 10.0086 11.7144 10.0687 11.6263 10.1678L8 14.2474L4.3737 10.1678C4.2856 10.0687 4.16174 10.0086 4.02936 10.0009C4.01958 10.0003 4.00979 9.99999 4 9.99999C3.99371 10 3.98741 10.0001 3.98112 10.0004C3.86524 10.0047 3.75449 10.0492 3.66782 10.1263C3.56107 10.2212 3.5 10.3572 3.5 10.5C3.5 10.5074 3.50017 10.5149 3.5005 10.5223C3.50563 10.637 3.55005 10.7464 3.6263 10.8322L7.6263 15.3322C7.63931 15.3468 7.65318 15.3607 7.66782 15.3737C7.87421 15.5572 8.19025 15.5386 8.3737 15.3322Z" fill="#F0F0F0"/>
<path d="M8 1.7526L11.6263 5.83218C11.7212 5.93893 11.8572 6 12 6C12.0075 6 12.0149 5.99983 12.0223 5.9995C12.137 5.99437 12.2464 5.94995 12.3322 5.8737C12.4313 5.7856 12.4914 5.66174 12.4991 5.52936C12.4997 5.51958 12.5 5.50979 12.5 5.5C12.5 5.49371 12.4999 5.48741 12.4996 5.48112C12.4953 5.36524 12.4507 5.25449 12.3737 5.16782L8.3737 0.667817C8.19025 0.461426 7.87421 0.442836 7.66782 0.626294C7.65318 0.63931 7.63931 0.653175 7.62629 0.667817L3.6263 5.16782C3.54494 5.25934 3.5 5.37754 3.5 5.5C3.5 5.50979 3.50029 5.51958 3.50086 5.52936C3.50865 5.66174 3.56871 5.7856 3.66782 5.8737C3.75934 5.95506 3.87754 6 4 6C4.00979 6 4.01958 5.99971 4.02936 5.99914C4.16174 5.99135 4.2856 5.93129 4.3737 5.83218L8 1.7526Z" fill="#F0F0F0"/>
</svg>
