<svg width="36" height="36" viewBox="0 0 36 36" fill="none" xmlns="http://www.w3.org/2000/svg">
<path d="M30.0516 11.5735L22.1766 3.69846C21.9622 3.48952 21.6743 3.37333 21.375 3.37502H7.875C7.27826 3.37502 6.70597 3.61207 6.28401 4.03403C5.86205 4.45598 5.625 5.02828 5.625 5.62502V30.375C5.625 30.9718 5.86205 31.5441 6.28401 31.966C6.70597 32.388 7.27826 32.625 7.875 32.625H28.125C28.7217 32.625 29.294 32.388 29.716 31.966C30.1379 31.5441 30.375 30.9718 30.375 30.375V12.375C30.3767 12.0757 30.2605 11.7878 30.0516 11.5735ZM21.375 22.5H19.125V24.75C19.125 25.0484 19.0065 25.3345 18.7955 25.5455C18.5845 25.7565 18.2984 25.875 18 25.875C17.7016 25.875 17.4155 25.7565 17.2045 25.5455C16.9935 25.3345 16.875 25.0484 16.875 24.75V22.5H14.625C14.3266 22.5 14.0405 22.3815 13.8295 22.1705C13.6185 21.9595 13.5 21.6734 13.5 21.375C13.5 21.0767 13.6185 20.7905 13.8295 20.5795C14.0405 20.3685 14.3266 20.25 14.625 20.25H16.875V18C16.875 17.7017 16.9935 17.4155 17.2045 17.2045C17.4155 16.9935 17.7016 16.875 18 16.875C18.2984 16.875 18.5845 16.9935 18.7955 17.2045C19.0065 17.4155 19.125 17.7017 19.125 18V20.25H21.375C21.6734 20.25 21.9595 20.3685 22.1705 20.5795C22.3815 20.7905 22.5 21.0767 22.5 21.375C22.5 21.6734 22.3815 21.9595 22.1705 22.1705C21.9595 22.3815 21.6734 22.5 21.375 22.5ZM21.375 12.375V6.08908L27.6609 12.375H21.375Z" fill="#C5B9E2"/>
</svg>
