<svg width="32" height="32" viewBox="0 0 32 32" fill="none" xmlns="http://www.w3.org/2000/svg">
<path d="M26.7125 10.2875L19.7125 3.28752C19.522 3.10179 19.266 2.99852 19 3.00002H7C6.46957 3.00002 5.96086 3.21073 5.58579 3.5858C5.21071 3.96088 5 4.46958 5 5.00002V27C5 27.5304 5.21071 28.0392 5.58579 28.4142C5.96086 28.7893 6.46957 29 7 29H25C25.5304 29 26.0391 28.7893 26.4142 28.4142C26.7893 28.0392 27 27.5304 27 27V11C27.0015 10.734 26.8982 10.478 26.7125 10.2875ZM19 20H17V22C17 22.2652 16.8946 22.5196 16.7071 22.7071C16.5196 22.8947 16.2652 23 16 23C15.7348 23 15.4804 22.8947 15.2929 22.7071C15.1054 22.5196 15 22.2652 15 22V20H13C12.7348 20 12.4804 19.8947 12.2929 19.7071C12.1054 19.5196 12 19.2652 12 19C12 18.7348 12.1054 18.4804 12.2929 18.2929C12.4804 18.1054 12.7348 18 13 18H15V16C15 15.7348 15.1054 15.4804 15.2929 15.2929C15.4804 15.1054 15.7348 15 16 15C16.2652 15 16.5196 15.1054 16.7071 15.2929C16.8946 15.4804 17 15.7348 17 16V18H19C19.2652 18 19.5196 18.1054 19.7071 18.2929C19.8946 18.4804 20 18.7348 20 19C20 19.2652 19.8946 19.5196 19.7071 19.7071C19.5196 19.8947 19.2652 20 19 20ZM19 11V5.41252L24.5875 11H19Z" fill="#1C1C1C"/>
</svg>
