<svg width="24" height="24" viewBox="0 0 24 24" fill="none" xmlns="http://www.w3.org/2000/svg">
<path d="M12 12H4.125V4.875C4.125 4.67606 4.20401 4.48535 4.34464 4.34464C4.48535 4.20401 4.67606 4.125 4.875 4.125H12V12Z" fill="#DCD5EE"/>
<path fill-rule="evenodd" clip-rule="evenodd" d="M3.375 4.875C3.375 4.875 3.375 4.25368 3.81434 3.81434C3.81434 3.81434 4.25368 3.375 4.875 3.375H19.125C19.125 3.375 19.7463 3.375 20.1857 3.81434C20.1857 3.81434 20.625 4.25368 20.625 4.875V19.125C20.625 19.125 20.625 19.7463 20.1857 20.1857C20.1857 20.1857 19.7463 20.625 19.125 20.625H4.875C4.875 20.625 4.25368 20.625 3.81434 20.1857C3.81434 20.1857 3.375 19.7463 3.375 19.125V4.875ZM4.875 4.875V19.125H19.125V4.875H4.875Z" fill="#C5B9E2"/>
<path d="M11.25 4.125V19.875C11.25 20.2892 11.5858 20.625 12 20.625C12.4142 20.625 12.75 20.2892 12.75 19.875V4.125C12.75 3.71079 12.4142 3.375 12 3.375C11.5858 3.375 11.25 3.71079 11.25 4.125Z" fill="#C5B9E2"/>
<path d="M19.875 11.25H4.125C3.71079 11.25 3.375 11.5858 3.375 12C3.375 12.4142 3.71079 12.75 4.125 12.75H19.875C20.2892 12.75 20.625 12.4142 20.625 12C20.625 11.5858 20.2892 11.25 19.875 11.25Z" fill="#C5B9E2"/>
</svg>
