<svg width="24" height="24" viewBox="0 0 24 24" fill="none" xmlns="http://www.w3.org/2000/svg">
<path d="M5.4375 15C5.4375 15 6.67991 15.0002 7.55859 15.8789C7.55895 15.8793 8.4375 16.7576 8.4375 18C8.4375 18 8.43727 19.2424 7.55859 20.1211C7.55854 20.1211 6.6801 21 5.4375 21H4.125C3.71079 21 3.375 20.6642 3.375 20.25V15.75C3.375 15.3358 3.71079 15 4.125 15H5.4375ZM4.875 19.5H5.4375C6.0588 19.5 6.49802 19.0606 6.49805 19.0605C6.93739 18.6212 6.9375 18 6.9375 18C6.9375 17.3787 6.49805 16.9395 6.49805 16.9395C6.05871 16.5001 5.4375 16.5 5.4375 16.5H4.875V19.5Z" fill="#303030"/>
<path d="M12.1875 15C12.1875 15 13.3722 15.0001 14.1992 15.9023C14.2158 15.9205 15 16.7892 15 18C15 18 15.0002 19.2236 14.1992 20.0977C14.1992 20.0977 13.3717 21 12.1875 21C12.1875 21 11.0028 20.9999 10.1758 20.0977C10.1592 20.0795 9.375 19.2108 9.375 18C9.375 18 9.37482 16.7764 10.1758 15.9023C10.1758 15.9023 11.0033 15 12.1875 15ZM12.1875 16.5C12.1875 16.5 11.6634 16.5002 11.2822 16.916C11.2822 16.916 10.875 17.3598 10.875 18C10.875 18 10.8753 18.64 11.2822 19.084C11.2852 19.0872 11.6651 19.5 12.1875 19.5C12.1875 19.5 12.7116 19.4998 13.0928 19.084C13.0928 19.084 13.5 18.6402 13.5 18C13.5 18 13.4997 17.36 13.0928 16.916C13.0898 16.9128 12.7098 16.5 12.1875 16.5Z" fill="#303030"/>
<path d="M18.5565 16.5C19.0239 16.5037 19.369 16.8191 19.369 16.8191C19.5072 16.9455 19.6877 17.0156 19.875 17.0156C19.8862 17.0156 19.8974 17.0153 19.9086 17.0148C20.1073 17.0059 20.2943 16.9185 20.4285 16.7716C20.5549 16.6334 20.625 16.4529 20.625 16.2656L20.625 16.2635C20.625 16.253 20.6247 16.2425 20.6242 16.232C20.6153 16.0333 20.5279 15.8463 20.381 15.7121C19.6114 15.0084 18.5685 15 18.5685 15C17.3748 15 16.5494 15.9007 16.5494 15.9007C15.75 16.773 15.75 18 15.75 18C15.75 19.227 16.5494 20.0993 16.5494 20.0993C17.3748 21 18.5625 21 18.5625 21C19.6114 20.9915 20.381 20.2879 20.381 20.2879C20.5365 20.1458 20.625 19.9449 20.625 19.7344L20.625 19.7291C20.6237 19.5436 20.5537 19.3652 20.4285 19.2283C20.2865 19.0729 20.0856 18.9844 19.875 18.9844L19.8698 18.9844C19.6843 18.9857 19.5059 19.0556 19.369 19.1808C19.0239 19.4962 18.5625 19.5 18.5625 19.5C18.0348 19.5 17.6553 19.0858 17.6553 19.0858C17.25 18.6436 17.25 18 17.25 18C17.25 17.3564 17.6553 16.9141 17.6553 16.9141C18.0348 16.5 18.5565 16.5 18.5565 16.5Z" fill="#303030"/>
<path d="M14.25 3V8.25H19.5L14.25 3Z" fill="#303030" fill-opacity="0.3"/>
<path d="M18.75 8.56066V12C18.75 12.4142 19.0858 12.75 19.5 12.75C19.9142 12.75 20.25 12.4142 20.25 12V8.25C20.25 8.05109 20.171 7.86032 20.0303 7.71967L14.7803 2.46967C14.6397 2.32902 14.4489 2.25 14.25 2.25L5.25 2.25C4.62868 2.25 4.18934 2.68934 4.18934 2.68934C3.75 3.12868 3.75 3.75 3.75 3.75V12C3.75 12.4142 4.08579 12.75 4.5 12.75C4.91421 12.75 5.25 12.4142 5.25 12V3.75H13.9393L18.75 8.56066Z" fill="#303030"/>
<path d="M14.25 9H19.5C19.9142 9 20.25 8.66421 20.25 8.25C20.25 7.83579 19.9142 7.5 19.5 7.5H15V3C15 2.58579 14.6642 2.25 14.25 2.25C13.8358 2.25 13.5 2.58579 13.5 3V8.25C13.5 8.66421 13.8358 9 14.25 9Z" fill="#303030"/>
</svg>
