<svg width="24" height="25" viewBox="0 0 24 25" fill="none" xmlns="http://www.w3.org/2000/svg">
<path d="M12.75 6.49991L18 11.7499L20.4656 9.2843C20.5365 9.21454 20.5928 9.13132 20.6312 9.03958C20.6696 8.94785 20.6894 8.84933 20.6894 8.74991C20.6894 8.65048 20.6696 8.55197 20.6312 8.46024C20.5928 8.3685 20.5365 8.28537 20.4656 8.21552L16.2844 4.0343C16.2146 3.96344 16.1314 3.90714 16.0397 3.86877C15.9479 3.83032 15.8495 3.81055 15.75 3.81055C15.6505 3.81055 15.5521 3.83032 15.4603 3.86877C15.3686 3.90714 15.2854 3.96344 15.2156 4.0343L12.75 6.49991Z" fill="white"/>
<path d="M17.4693 12.2799L17.4697 12.2803C17.6103 12.421 17.8011 12.5 18 12.5C18.1989 12.5 18.3897 12.421 18.5303 12.2803C18.671 12.1397 18.75 11.9489 18.75 11.75C18.75 11.5511 18.671 11.3603 18.5303 11.2197L18.5299 11.2193L13.2804 5.96976C13.1397 5.82902 12.9489 5.75 12.75 5.75C12.5511 5.75 12.3603 5.82902 12.2197 5.96967C12.079 6.11032 12 6.30109 12 6.5C12 6.69891 12.079 6.88968 12.2197 7.03033L17.4693 12.2799Z" fill="white"/>
<path fill-rule="evenodd" clip-rule="evenodd" d="M4.5 21.4999H8.6894L8.69063 21.4999C8.69063 21.4999 8.98612 21.5005 9.25954 21.3882C9.25954 21.3882 9.53418 21.2754 9.74464 21.0659L20.996 9.81462C20.996 9.81462 21.2066 9.60721 21.323 9.32924C21.323 9.32924 21.4394 9.05127 21.4394 8.74992C21.4394 8.74992 21.4394 8.44857 21.323 8.17059C21.323 8.17059 21.2066 7.89263 20.9919 7.68117L16.8147 3.50396C16.8147 3.50396 16.6073 3.29332 16.3293 3.17694C16.3293 3.17694 16.0514 3.06055 15.75 3.06055C15.75 3.06055 15.4487 3.06055 15.1707 3.17693C15.1707 3.17693 14.8927 3.29332 14.6813 3.50804L3.4353 14.754C3.4353 14.754 3.22457 14.9657 3.11177 15.2404C3.11177 15.2404 2.99897 15.515 3.00001 15.8119L3 19.9999C3 19.9999 3 20.6212 3.43934 21.0606C3.43934 21.0606 3.87868 21.4999 4.5 21.4999ZM19.9353 8.75396L8.68935 19.9999H4.5L4.5 15.8106L15.75 4.56055L15.754 4.56462L19.9394 8.74992L19.9353 8.75396Z" fill="white"/>
</svg>
