<svg width="128" height="128" viewBox="0 0 128 128" fill="none" xmlns="http://www.w3.org/2000/svg">
<rect width="128" height="128" rx="40" fill="#240866"/>
<path fill-rule="evenodd" clip-rule="evenodd" d="M80.3872 23.9742C82.4887 22.8454 84.8362 22.2526 87.2216 22.2483C91.1473 22.2483 94.7408 23.9594 97.341 27.0665C98.6827 28.6965 99.7055 30.5645 100.356 32.5729C101.082 34.7513 101.45 37.145 101.45 39.6862C101.45 46.0919 99.381 52.0384 95.6242 56.4313C93.8518 58.5031 91.7982 60.1348 89.5201 61.2688C87.297 62.4013 84.8394 62.997 82.3444 63.0083C78.3053 63.0083 74.6948 61.0579 72.6287 57.8386L71.8531 62.8631L65.5029 104.366L65.444 104.75H52.0576L52.0316 104.325L51.7776 100.277C50.4554 101.94 48.9676 103.244 47.3438 104.166C45.4053 105.265 43.2126 105.836 40.9846 105.822C37.0475 105.822 33.4313 104.108 30.8005 100.997C29.4404 99.3642 28.4016 97.4889 27.7389 95.47C26.9984 93.2792 26.623 90.8718 26.623 88.317C26.623 74.612 36.4476 65.0607 45.2641 65.0607C47.5277 65.0517 49.7561 65.6212 51.7379 66.7152C53.2449 67.5395 54.5366 68.7073 55.5083 70.1238L56.581 63.0763L56.6173 62.7463V62.7271L62.5671 23.7043L62.6261 23.3187H75.6224L75.6382 23.7553L75.7913 27.7729C77.0636 26.2218 78.6243 24.9318 80.3872 23.9742ZM75.7437 47.8099C76.6508 48.8497 77.9878 49.3974 79.5991 49.3974V49.3952C82.1721 49.3952 83.7619 48.0616 84.6418 46.9435C85.7803 45.4966 86.4335 43.5088 86.4335 41.4904C86.4335 39.7622 85.9674 38.3255 85.0863 37.3367C84.1848 36.3263 82.8422 35.7911 81.2037 35.7911C78.684 35.7911 77.0954 37.0917 76.2052 38.1826C75.0384 39.6148 74.3682 41.5754 74.3682 43.5632C74.3682 45.3152 74.8365 46.77 75.7437 47.8099ZM43.1856 90.7312C44.0859 91.7415 45.4285 92.2768 47.0671 92.2768L47.0682 92.279C49.589 92.279 51.1777 90.9784 52.0667 89.8875C53.2336 88.4553 53.9037 86.4947 53.9037 84.5069C53.9037 82.7549 53.4354 81.3001 52.5282 80.2603C51.6211 79.2204 50.2841 78.6727 48.6728 78.6727C46.0987 78.6727 44.51 80.0062 43.629 81.1243C42.4905 82.5713 41.8373 84.5591 41.8373 86.5775C41.8373 88.3057 42.3034 89.7424 43.1856 90.7312Z" fill="#F7E1BC"/>
<path d="M76.4242 105.463C80.3338 105.463 83.5032 102.229 83.5032 98.2393C83.5032 94.2499 80.3338 91.0159 76.4242 91.0159C72.5146 91.0159 69.3452 94.2499 69.3452 98.2393C69.3452 102.229 72.5146 105.463 76.4242 105.463Z" fill="#F7E1BC"/>
</svg>
