<svg width="605" height="395" viewBox="0 0 605 395" fill="none" xmlns="http://www.w3.org/2000/svg">
<g clip-path="url(#clip0_2027_335)">
<path d="M95.0783 127.024C102.081 141.53 116.614 149.784 132.343 149.784C168.357 149.784 202.12 114.268 202.12 64.2461C202.12 25.9793 179.361 0.718262 150.6 0.718262C133.093 0.718262 116.837 9.4721 106.333 24.4787L105.596 4.72001H60.0648L29.8726 198.305H83.3654L95.0783 127.024ZM128.091 47.9612C141.846 47.9612 149.349 57.2152 149.349 70.9713C149.349 86.4781 139.623 102.235 122.089 102.235C108.583 102.235 100.83 92.7308 100.83 78.7247C100.83 63.2456 111.084 47.9612 128.091 47.9612Z" fill="#F7E1BC"/>
<path d="M249.221 145.782L258.252 83.2544C262.004 57.9934 274.231 49.9898 291.015 49.9898C295.805 50.0197 300.58 50.5223 305.27 51.4905L312.773 2.71914C309.744 1.46859 304.979 0.718262 300.741 0.718262C287.486 0.718262 272.952 6.72089 261.226 22.9502H260.725L258.725 4.72002H217.209L195.673 145.754L249.221 145.782Z" fill="#F7E1BC"/>
<path d="M375.186 149.784C391.943 149.784 410.95 146.032 424.205 140.53L431.708 98.5111C418.453 104.264 401.196 109.016 385.44 109.016C367.934 109.016 355.679 103.013 351.677 89.257H439.461C442.672 80.5218 444.364 71.3013 444.463 61.9951C444.463 30.2312 421.69 0.718262 381.439 0.718262C337.422 0.718262 302.658 35.9837 302.658 82.254C302.658 123.272 329.919 149.784 375.186 149.784ZM379.438 41.4861C390.943 41.4861 397.445 48.4892 397.445 55.9925C397.417 57.4226 397.249 58.8467 396.945 60.2443H354.178C358.43 49.7397 366.683 41.4861 379.438 41.4861Z" fill="#F7E1BC"/>
<path d="M552.991 0.718262C535.484 0.718262 519.228 9.4721 508.724 24.4787L507.988 4.72001H462.47L432.959 198.305H433.07L428.318 229.464C421.565 215.708 405.809 207.232 389.053 207.232C356.79 207.205 321.027 242.491 321.027 292.513C321.027 331.03 344.286 356.291 373.047 356.291C389.553 356.291 403.809 348.287 414.813 332.53L416.063 352.261H463.081L493.843 150.673L497.497 127.051C504.5 141.558 519.034 149.811 534.762 149.811C570.776 149.811 604.539 114.296 604.539 64.2739C604.525 25.9793 581.766 0.718262 552.991 0.718262ZM395.805 308.999C382.05 308.999 374.547 299.745 374.547 285.989C374.547 270.482 384.273 254.725 401.808 254.725C415.313 254.725 423.066 264.23 423.066 278.236C423.08 293.742 412.812 308.999 395.805 308.999ZM524.508 102.263C511.003 102.263 503.25 92.7586 503.25 78.7524C503.236 63.2457 513.49 47.9612 530.496 47.9612C544.252 47.9612 551.755 57.2152 551.755 70.9713C551.755 86.5058 542.001 102.263 524.508 102.263Z" fill="#F7E1BC"/>
<path d="M115.85 203.925C98.9548 203.925 88.8537 214.52 78.7179 228.999L82.0803 207.788H28.4832L0 394.599H51.6519L62.2671 325.819C69.0266 339.818 83.0251 347.787 98.2323 347.787C132.968 347.787 165.564 313.508 165.564 265.237C165.564 228.304 143.604 203.925 115.85 203.925ZM88.3327 301.92C75.2999 301.92 67.8178 292.749 67.8178 279.229C67.8178 264.264 77.7175 249.543 94.1266 249.543C107.403 249.543 114.641 258.47 114.641 271.774C114.628 286.712 105.228 301.92 88.3327 301.92Z" fill="#F7E1BC"/>
<path d="M277.76 210.998L270.882 228.79C263.053 215.027 250.249 207.205 233.166 207.205C197.59 207.205 166.988 241.122 166.988 287.615C166.988 324.86 188.573 348.579 217.007 348.579C233.611 348.579 246.88 341.229 258.28 326.048L259.704 344.807H303.381L323.778 211.019L277.76 210.998ZM238.161 303.747C225.594 303.747 217.765 294.972 217.765 281.689C217.765 266.745 227.491 252.273 243.379 252.273C255.953 252.273 263.782 261.048 263.782 274.331C263.768 289.039 254.265 303.747 238.147 303.747H238.161Z" fill="#F7E1BC"/>
<path d="M517.693 347.586C535.841 347.586 550.553 332.873 550.553 314.724C550.553 296.575 535.841 281.862 517.693 281.862C499.545 281.862 484.833 296.575 484.833 314.724C484.833 332.873 499.545 347.586 517.693 347.586Z" fill="#F7E1BC"/>
</g>
<defs>
<clipPath id="clip0_2027_335">
<rect width="604.525" height="393.881" fill="white" transform="translate(0 0.718262)"/>
</clipPath>
</defs>
</svg>
