<svg width="24" height="24" viewBox="0 0 24 24" fill="none" xmlns="http://www.w3.org/2000/svg">
<path d="M18 9C18 12.3137 15.3137 15 12 15C8.68634 15 6 12.3137 6 9C6 5.68634 8.68634 3 12 3C15.3137 3 18 5.68634 18 9Z" fill="#F7F7F7"/>
<path fill-rule="evenodd" clip-rule="evenodd" d="M12 2.25C12 2.25 13.3728 2.25 14.6276 2.78076C14.6276 2.78076 15.8391 3.29317 16.773 4.22703C16.773 4.22703 17.7068 5.1609 18.2192 6.37236C18.2192 6.37236 18.75 7.62721 18.75 9C18.75 9 18.75 10.3728 18.2192 11.6276C18.2192 11.6276 17.7068 12.8391 16.773 13.773C16.773 13.773 15.8391 14.7068 14.6276 15.2192C14.6276 15.2192 13.3728 15.75 12 15.75C12 15.75 10.6272 15.75 9.37237 15.2192C9.37237 15.2192 8.16089 14.7068 7.22703 13.773C7.22703 13.773 6.29317 12.8391 5.78076 11.6276C5.78076 11.6276 5.25 10.3728 5.25 9C5.25 9 5.25 7.62721 5.78076 6.37236C5.78076 6.37236 6.29317 5.16089 7.22703 4.22703C7.22703 4.22703 8.16089 3.29317 9.37237 2.78076C9.37237 2.78076 10.6272 2.25 12 2.25ZM12 3.75C12 3.75 9.82538 3.75 8.28769 5.28769C8.28769 5.28769 6.75 6.82538 6.75 9C6.75 9 6.75 11.1746 8.28769 12.7123C8.28769 12.7123 9.82538 14.25 12 14.25C12 14.25 14.1746 14.25 15.7123 12.7123C15.7123 12.7123 17.25 11.1746 17.25 9C17.25 9 17.25 6.82538 15.7123 5.28769C15.7123 5.28769 14.1746 3.75 12 3.75Z" fill="#F7F7F7"/>
<path d="M16.8754 17.0565C19.138 18.363 20.4442 20.6258 20.4442 20.6258C20.5436 20.798 20.7074 20.9238 20.8996 20.9753C20.9629 20.9922 21.0282 21.0008 21.0938 21.0008C21.1016 21.0008 21.1095 21.0007 21.1173 21.0005C21.2409 20.9966 21.3616 20.9622 21.4687 20.9004C21.7008 20.7664 21.8438 20.5188 21.8438 20.2508C21.8438 20.2393 21.8435 20.2277 21.8429 20.2161C21.8374 20.0964 21.8032 19.9797 21.7433 19.8759C20.2362 17.2649 17.6254 15.7575 17.6254 15.7575C15.0147 14.25 12 14.25 12 14.25C8.98529 14.25 6.37455 15.7575 6.37455 15.7575C3.76401 17.2648 2.25693 19.8755 2.25693 19.8755L2.2567 19.8759C2.19089 19.9899 2.15625 20.1192 2.15625 20.2508L2.15637 20.2644C2.15748 20.3254 2.16602 20.3861 2.18182 20.445C2.23332 20.6371 2.35904 20.801 2.53131 20.9004C2.64531 20.9662 2.77462 21.0008 2.90625 21.0008C2.92013 21.0008 2.93401 21.0005 2.94787 20.9997C3.20063 20.9856 3.42925 20.845 3.5558 20.6258C4.86197 18.363 7.12461 17.0565 7.12461 17.0565C9.38726 15.75 12 15.75 12 15.75C14.6127 15.75 16.8754 17.0565 16.8754 17.0565Z" fill="#F7F7F7"/>
</svg>
