<svg width="32" height="32" viewBox="0 0 32 32" fill="none" xmlns="http://www.w3.org/2000/svg">
<path d="M17.4125 16.0009L25.7125 7.71344C25.872 7.51914 25.9535 7.27248 25.9411 7.02143C25.9288 6.77037 25.8235 6.53288 25.6458 6.35515C25.4681 6.17741 25.2306 6.07214 24.9795 6.05981C24.7285 6.04748 24.4818 6.12898 24.2875 6.28844L16 14.5884L7.71251 6.28844C7.51821 6.12898 7.27155 6.04748 7.0205 6.05981C6.76945 6.07214 6.53196 6.17741 6.35422 6.35515C6.17649 6.53288 6.07122 6.77037 6.05889 7.02143C6.04656 7.27248 6.12805 7.51914 6.28751 7.71344L14.5875 16.0009L6.28751 24.2884C6.09973 24.478 5.99438 24.7341 5.99438 25.0009C5.99438 25.2678 6.09973 25.5238 6.28751 25.7134C6.47865 25.8983 6.73413 26.0016 7.00001 26.0016C7.26589 26.0016 7.52137 25.8983 7.71251 25.7134L16 17.4134L24.2875 25.7134C24.4786 25.8983 24.7341 26.0016 25 26.0016C25.2659 26.0016 25.5214 25.8983 25.7125 25.7134C25.9003 25.5238 26.0056 25.2678 26.0056 25.0009C26.0056 24.7341 25.9003 24.478 25.7125 24.2884L17.4125 16.0009Z" fill="#F7E1BC"/>
</svg>
